<?xml version="1.0" encoding="utf-8"?>
<!-- Generator: Adobe Illustrator 28.0.0, SVG Export Plug-In . SVG Version: 6.00 Build 0)  -->
<svg version="1.1" id="Layer_1" xmlns="http://www.w3.org/2000/svg" xmlns:xlink="http://www.w3.org/1999/xlink" x="0px" y="0px"
	 viewBox="0 0 2706.6 2040.3" style="enable-background:new 0 0 2706.6 2040.3;" xml:space="preserve">
<style type="text/css">
	.st0{fill-rule:evenodd;clip-rule:evenodd;fill:#FFFFFF;}
</style>
<g>
	<polygon class="st0" points="1251.7,936 1522.5,936.1 1522.5,796.5 1230.5,796.4 	"/>
	<polygon class="st0" points="1677.2,936.1 1948,936.2 1969.2,796.6 1677.3,796.6 	"/>
	<path class="st0" d="M2639.9,352l-2008.2,2.4L532.8,62.9c-6.2-12.8-13.2-21.8-21.3-28.9c-14.2-14.2-33.6-22.7-54.9-22.7H276.3
		h-98.9H77.6C35,11.3,0,46.3,0,88.9c0,43.1,35,77.6,77.6,77.6h99.8h229L880.1,1579c30.8,76.7,40.2,86.1,45.4,88
		c13.2,13.2,31.2,21.3,51.1,21.3h94.6h72.9c-68.6,26-116.9,92.3-116.9,169.9c0,100.8,81.4,182.2,182.2,182.2
		c100.8,0,182.2-81.4,182.2-182.2c0-77.6-48.3-143.8-116.4-169.9h35.5h57.3h28.9h65.8h28.9h58.7h262.1h122.1h28.4h23.2
		c-68.1,26-116.9,80.9-116.9,169.9c0,89,81.9,182.2,182.2,182.2c100.8,0,182.2-93.2,182.2-182.2c0-89-48.3-143.8-116.4-169.9h126.8
		c40.7,0,73.8-33.6,73.8-73.8c0-40.7-33.1-73.8-73.8-73.8h-239.4H1853h-28.9h-122.1h-151.9h-58.7h-28.9h-65.8H1368h-57.3h-239.4h-45
		l-46.8-160.9l1298,0.5c40.7,0.5,69.1-1.9,76.7-3.3c49.2-11.4,55.8-59.6,69.6-100.8L2552.4,890c27.9-85.2,57.7-169.9,86.1-259.3
		l62-192.6C2714.2,402.1,2709,352,2639.9,352z M2508.4,796.8l-384.4-0.1l-21.2,139.6l328.6,0.1v154.7l-352.1-0.1l-32.1,211.1h-154.7
		l32.1-211.2l-247.3-0.1l-0.1,228.8h-154.7l0.1-228.8l-247.1-0.1l32.2,211.4h-154.7l-32.2-211.4l-351.6-0.1V935.9l328,0.1
		l-21.2-139.6l-383.9-0.1V642h360.4l-34.4-226.2h154.7L1207,642h315.6l0.1-208.7h154.7l-0.1,208.7h315.4l34.4-226.2h154.7
		L2147.5,642h360.9V796.8z"/>
</g>
</svg>
