<?xml version="1.0" encoding="UTF-8"?>
<svg id="Layer_1" data-name="Layer 1" xmlns="http://www.w3.org/2000/svg" viewBox="0 0 93.27 97.64">
  <defs>
    <style>
      .cls-1 {
        fill: #ea982a;
      }

      .cls-1, .cls-2, .cls-3 {
        stroke-width: 0px;
      }

      .cls-2 {
        fill: #fff;
      }

      .cls-3 {
        fill: #231f20;
      }
    </style>
  </defs>
  <circle class="cls-2" cx="46.63" cy="48.82" r="44.64"/>
  <g>
    <g>
      <path class="cls-1" d="m50.97,17.16c.59.16,1.16.37,1.73.6-.13.16-.26.31-.41.45-1.03,1-2.47,1.48-3.84,1.63-2.19.23-3.88-.8-5.27-2.29.69-.24,1.41-.42,2.15-.56,1.2,1.92,4.1,1.72,5.64.18Z"/>
      <path class="cls-1" d="m48.45,20.8c1.64-.07,3.98-1.05,5.26-2.6.2.1.41.2.61.31-1.38,1.96-3.05,3.29-5.75,3.81-3.49.67-5.92-1.03-7.41-3.91.47-.23.95-.44,1.45-.64,1.05,2.14,3.52,3.13,5.85,3.03Z"/>
      <path class="cls-1" d="m48.26,23.25c1.94-.18,3.74-1.03,5.27-2.27.47-.38,1.19-1.11,1.74-1.93.29.18.62.39.97.64-.12.34-.24.69-.42,1.02-.68,1.21-1.95,2.06-3.09,2.73-1.73,1.02-3.64,1.34-5.6,1.24-2.02-.09-4.07-.85-5.63-2.18-.66-.56-1.14-1.29-1.52-2.07-.19-.38-.27-.78-.34-1.18.32-.2.64-.39.97-.56.71,3.35,4.48,4.86,7.66,4.56Z"/>
      <path class="cls-1" d="m49.97,16.93c-.32.23-.67.44-1.08.58-1.12.39-2.08,0-2.94-.62.26-.04.51-.09.77-.12,1.1-.11,2.19-.04,3.25.16Z"/>
      <path class="cls-1" d="m34.86,23.15c1.06-1.1,2.2-2.1,3.41-2.99.43,1.33,1.44,2.66,2.2,3.39,1.78,1.72,4.3,2.42,6.66,2.62,2.62.23,5.09-.6,7.29-2.03,1.05-.69,2.51-2.05,3.13-3.52.66.51,1.34,1.07,1.96,1.65,1.85,1.73,1.62,3.1.11,4.26-7.34,5.68-16.77,5.56-24.41.52-1.87-1.23-1.84-2.36-.35-3.91Z"/>
      <path class="cls-1" d="m67.39,42.51c.04.4.06.81.05,1.24-.03.85-.24,1.89.13,2.69.01.03.05.03.07,0,.44-.87.46-2.03.55-2.99.03-.32.07-.72.08-1.14.65-.15,1.3-.31,1.96-.44-.07.68-.08,1.39-.19,1.92-.34,1.73-.84,3.5-1.71,5.03-1.32,2.31-2.58-1.01-3.08-2.24-.41-1.02-.68-2.35-1.21-3.43.32-.05.64-.09.95-.14.77-.12,1.57-.29,2.4-.48Z"/>
      <path class="cls-1" d="m54.43,44.19c-.07.98-.25,1.95-.13,2.92,0,.07.09.08.12.02.34-.88.71-1.95.85-3,.95-.08,1.89-.16,2.83-.26-.08.29-.16.59-.25.86-.5,1.54-1.05,3.07-1.83,4.48-.29.52-.77,1.32-1.42,1.37-.9.06-1.76-1.77-2.1-2.42-.6-1.14-.99-2.57-1.63-3.76,1.19-.06,2.38-.13,3.56-.22Z"/>
      <path class="cls-1" d="m46.31,44.54c-.12.35-.22.69-.34.98-.59,1.4-1.26,2.86-2.2,4.06-1.86,2.39-3.17-2.33-4.03-5.14.81.04,1.62.06,2.43.08,0,.86.09,1.72.44,2.5.02.04.08.03.09-.01.2-.81.21-1.65.26-2.48,1.11.02,2.23.02,3.34,0Z"/>
      <path class="cls-1" d="m28.31,47.93s.08.05.09,0c.4-1.21.43-2.58.69-3.85.04-.21.1-.42.16-.64,1.14.17,2.29.31,3.44.44-.75,2.42-1.79,4.94-3.37,6.78-1.85,2.16-2.76-1.84-2.98-3.24-.2-1.32-.08-3.04-.32-4.53.78.15,1.57.28,2.36.41-.06.36-.11.71-.17,1.04-.19,1.15-.35,2.48.08,3.58Z"/>
      <path class="cls-1" d="m19.85,65.05s.05-.05.08-.08c.46-.44.94-.98,1.21-1.58.02-.04,0-.1-.05-.1-.56.06-1.1.41-1.52.78-.03.03-.07.06-.1.09-.27-.64-.53-1.3-.77-1.96,2.09-.51,4.88-1.45,4.2,1.25-.34,1.38-1.25,2.65-1.84,3.99-.44-.78-.84-1.58-1.21-2.4Z"/>
      <path class="cls-1" d="m25.52,73.4c1.93-2.3,5.16-6.62,5.94-4.61.67,1.71.19,4.26.04,6.03-.06.71-.34,1.76-.51,2.77-.85-.5-1.68-1.04-2.48-1.63.05-.36.07-.71.12-.96.25-1.35.96-2.61,1.13-3.96,0-.06-.07-.08-.11-.05-.91.81-1.33,2.26-1.75,3.39-.11.29-.17.61-.22.93-.08-.07-.17-.13-.25-.19-.67-.54-1.3-1.12-1.91-1.73Z"/>
      <path class="cls-1" d="m40.76,78.36c-.49.7-.66,1.65-.75,2.5,0,.08-.02.17-.04.26-.96-.22-1.92-.48-2.85-.78.05-.1.1-.21.15-.31.69-1.3,1.38-2.58,2.36-3.67,2.62-2.94,3.85,2.76,4.38,5.42-1.07-.11-2.14-.27-3.19-.48.09-.97.11-1.96.1-2.9,0-.09-.1-.1-.15-.04Z"/>
      <path class="cls-1" d="m57.1,79.87c-.25-.73-.62-1.53-1.21-2.03-.05-.04-.12,0-.11.07.17.82.39,1.63.55,2.45.02.11.04.24.07.37-.94.26-1.89.49-2.86.67.07-.55.1-1.11.16-1.58.18-1.38.4-2.89,1.07-4.13.91-1.68,3.92,1.88,5.29,3.77-.9.38-1.83.72-2.76,1.01-.07-.22-.14-.42-.2-.6Z"/>
      <path class="cls-1" d="m77.48,58.85c-.59-.11-1.25-.12-1.73-.06-.09.01-.13.12-.05.18.34.23.74.38,1.12.53.14.05.3.11.45.17-.23.84-.51,1.66-.81,2.47-.19-.16-.37-.31-.54-.46-.81-.76-1.66-1.62-2.01-2.72-.64-2.03,2.04-2.11,4.05-2.35-.13.76-.3,1.51-.48,2.25Z"/>
      <path class="cls-1" d="m67.95,74.56c-.08.07-.15.13-.23.19-1.2-3.25-3.95-8.29-1.16-9.21,2.05-.67,5.24.76,7.17,2.19-.63,1.02-1.33,2.01-2.08,2.95-.99-1.21-2.34-2.36-3.7-2.67-.06-.01-.1.06-.06.1.59.69,1.31,1.29,1.93,1.95.42.45.81.91,1.19,1.38-.94,1.1-1.96,2.14-3.06,3.11Z"/>
    </g>
    <g>
      <path class="cls-3" d="m78,22.84c-4.89-6.83-12.65-10.97-20.47-12.97-14.99-3.84-33.81,2.08-43.04,15.33-9.44,12.68-8.45,33.86-1.46,47.25,7.29,13.96,24.85,19.04,39.13,16.74,7.9-1.27,15.18-4.5,21.29-9.88,7.64-6.72,10.78-16.07,11.66-26.15.89-10.25-1.1-21.94-7.11-30.32Zm3.36,38.4c-2.41,10.77-10.53,18.76-20.18,22.85-13.16,5.58-30.49,3.85-41.01-6.36-6.34-7.13-9.48-15.65-9.62-25.88-.15-10.69,1.69-21.55,9.34-29.28,14.94-15.1,43.68-15.56,56.61,2.49,7.06,9.85,7.42,24.72,4.85,36.18Z"/>
      <path class="cls-3" d="m61.16,27.76c1.66-1.9,2.44-3.49.37-6.28-1.15-1.55-2.75-2.95-3.71-3.79-2.84-2.46-6.32-3.71-9.96-4.1-6.8-.73-12.9,3.53-16.64,9.11-1.31,1.95-1.28,3.77.29,5.51,7.49,8.28,22.38,7.88,29.65-.45Zm-11.08-10.6c.59.16,1.16.37,1.73.6-.13.16-.26.31-.41.45-1.03,1-2.47,1.48-3.84,1.63-2.19.23-3.88-.8-5.27-2.29.69-.24,1.41-.42,2.15-.56,1.2,1.92,4.1,1.72,5.64.18Zm-2.52,3.64c1.64-.07,3.98-1.05,5.26-2.6.2.1.41.2.61.31-1.38,1.96-3.05,3.29-5.75,3.81-3.49.67-5.92-1.03-7.41-3.91.47-.23.95-.44,1.45-.64,1.05,2.14,3.52,3.13,5.85,3.03Zm-.18,2.45c1.94-.18,3.74-1.03,5.27-2.27.47-.38,1.19-1.11,1.74-1.93.29.18.62.39.97.64-.12.34-.24.69-.42,1.02-.68,1.21-1.95,2.06-3.09,2.73-1.73,1.02-3.64,1.34-5.6,1.24-2.02-.09-4.07-.85-5.63-2.18-.66-.56-1.14-1.29-1.52-2.07-.19-.38-.27-.78-.34-1.18.32-.2.64-.39.97-.56.71,3.35,4.48,4.86,7.66,4.56Zm1.7-6.32c-.32.23-.67.44-1.08.58-1.12.39-2.08,0-2.94-.62.26-.04.51-.09.77-.12,1.1-.11,2.19-.04,3.25.16Zm-15.11,6.23c1.06-1.1,2.2-2.1,3.41-2.99.43,1.33,1.44,2.66,2.2,3.39,1.78,1.72,4.3,2.42,6.66,2.62,2.62.23,5.09-.6,7.29-2.03,1.05-.69,2.51-2.05,3.13-3.52.66.51,1.34,1.07,1.96,1.65,1.85,1.73,1.62,3.1.11,4.26-7.34,5.68-16.77,5.56-24.41.52-1.87-1.23-1.84-2.36-.35-3.91Z"/>
      <path class="cls-3" d="m77.35,39.53c-2.37-1.92-5.57-1.27-8.27-.64-5.24,1.22-10.64,1.68-15.99,2.01-8.92.54-17.91.71-28.28-1.18-6.64-1.21-12.4-1.32-12.46,9.14-.05,8.04,2.24,16.21,6.71,22.78,9.75,14.32,29.44,16.69,43.93,9.49,7.21-3.58,12.73-10.03,15.46-17.75,2.16-6.1,4.94-18.95-1.09-23.84Zm-10.84,2.99c.04.4.06.81.05,1.24-.03.85-.24,1.89.13,2.69.01.03.05.03.07,0,.44-.87.46-2.03.55-2.99.03-.32.07-.72.08-1.14.65-.15,1.3-.31,1.96-.44-.07.68-.08,1.39-.19,1.92-.34,1.73-.84,3.5-1.71,5.03-1.32,2.31-2.58-1.01-3.08-2.24-.41-1.02-.68-2.35-1.21-3.43.32-.05.64-.09.95-.14.77-.12,1.57-.29,2.4-.48Zm-12.96,1.67c-.07.98-.25,1.95-.13,2.92,0,.07.09.08.12.02.34-.88.71-1.95.85-3,.95-.08,1.89-.16,2.83-.26-.08.29-.16.59-.25.86-.5,1.54-1.05,3.07-1.83,4.48-.29.52-.77,1.32-1.42,1.37-.9.06-1.76-1.77-2.1-2.42-.6-1.14-.99-2.57-1.63-3.76,1.19-.06,2.38-.13,3.56-.22Zm-8.12.35c-.12.35-.22.69-.34.98-.59,1.4-1.26,2.86-2.2,4.06-1.86,2.39-3.17-2.33-4.03-5.14.81.04,1.62.06,2.43.08,0,.86.09,1.72.44,2.5.02.04.08.03.09-.01.2-.81.21-1.65.26-2.48,1.11.02,2.23.02,3.34,0Zm-18,3.39s.08.05.09,0c.4-1.21.43-2.58.69-3.85.04-.21.1-.42.16-.64,1.14.17,2.29.31,3.44.44-.75,2.42-1.79,4.94-3.37,6.78-1.85,2.16-2.76-1.84-2.98-3.24-.2-1.32-.08-3.04-.32-4.53.78.15,1.57.28,2.36.41-.06.36-.11.71-.17,1.04-.19,1.15-.35,2.48.08,3.58Zm-8.46,17.12s.05-.05.08-.08c.46-.44.94-.98,1.21-1.58.02-.04,0-.1-.05-.1-.56.06-1.1.41-1.52.78-.03.03-.07.06-.1.09-.27-.64-.53-1.3-.77-1.96,2.09-.51,4.88-1.45,4.2,1.25-.34,1.38-1.25,2.65-1.84,3.99-.44-.78-.84-1.58-1.21-2.4Zm5.66,8.35c1.93-2.3,5.16-6.62,5.94-4.61.67,1.71.19,4.26.04,6.03-.06.71-.34,1.76-.51,2.77-.85-.5-1.68-1.04-2.48-1.63.05-.36.07-.71.12-.96.25-1.35.96-2.61,1.13-3.96,0-.06-.07-.08-.11-.05-.91.81-1.33,2.26-1.75,3.39-.11.29-.17.61-.22.93-.08-.07-.17-.13-.25-.19-.67-.54-1.3-1.12-1.91-1.73Zm15.24,4.96c-.49.7-.66,1.65-.75,2.5,0,.08-.02.17-.04.26-.96-.22-1.92-.48-2.85-.78.05-.1.1-.21.15-.31.69-1.3,1.38-2.58,2.36-3.67,2.62-2.94,3.85,2.76,4.38,5.42-1.07-.11-2.14-.27-3.19-.48.09-.97.11-1.96.1-2.9,0-.09-.1-.1-.15-.04Zm16.34,1.51c-.25-.73-.62-1.53-1.21-2.03-.05-.04-.12,0-.11.07.17.82.39,1.63.55,2.45.02.11.04.24.07.37-.94.26-1.89.49-2.86.67.07-.55.1-1.11.16-1.58.18-1.38.4-2.89,1.07-4.13.91-1.68,3.92,1.88,5.29,3.77-.91.38-1.83.72-2.76,1.01-.07-.22-.14-.42-.2-.6Zm4.44-1.09c-1.48-2.34-4.3-5.83-6.94-4.96-1.35.45-1.7,2.39-1.88,3.62-.17,1.18-.43,2.78-.32,4.14-2.35.35-4.74.45-7.11.3-.49-2.87-1.24-8.32-5-7.54-1.41.29-2.4,2.08-3.02,3.25-.32.6-.83,1.5-1.17,2.4-1.2-.43-2.37-.94-3.5-1.51.04-.35.06-.7.1-.98.2-1.41.34-2.83.45-4.26.14-1.96.52-4.8-1.11-6.24-2.36-2.09-5.81,2.43-7.38,5.47-.99-1.1-1.88-2.27-2.68-3.52.68-2.36,2.95-4.65,2.17-7.16-.77-2.52-3.71-1.44-5.75-.42-.33-.99-.64-2-.9-3.01-.79-3.1-1.08-6.32-1.15-9.51-.13-5.62,3.02-7.29,8.09-6.25.13.03.26.05.39.07-.27,3.65.23,10.94,4.01,9.95,1.62-.42,2.75-2.64,3.5-3.99.78-1.42,1.46-2.99,1.96-4.57,1.47.14,2.95.25,4.43.32.32,2.96,1.94,7.7,4.56,7,1.59-.43,2.54-2.41,3.22-3.79.34-.69,1.07-1.95,1.4-3.08.71-.02,1.42-.04,2.13-.07.42,3.03,2.63,9.01,5.72,7.09,1.36-.84,2.05-2.81,2.61-4.24.34-.87,1.07-2.34,1.3-3.6,1.07-.12,2.13-.25,3.19-.4.33,3.16,2.5,9.44,5.36,7.73,1.69-1.01,2.34-3.43,2.84-5.23.25-.89.88-2.79.88-4.23,1.14-.15,2.26-.21,3.3-.03,3.84.65,3.27,7.58,3.18,10.38-.03,1.2-.14,2.39-.31,3.57-.99-.1-2.06-.04-2.85.12-1.33.26-2.47,1.06-2.79,2.49-.27,1.21.5,2.39,1.18,3.28.53.7,1.33,1.64,2.16,2.33-.39.91-.83,1.8-1.31,2.67-2.43-1.77-6.31-3.39-8.86-2.2-3.68,1.72-1.14,8.15.99,11.45-1.59,1.24-3.31,2.29-5.11,3.16Zm15.94-19.93c-.59-.11-1.25-.12-1.73-.06-.09.01-.13.12-.05.18.34.23.74.38,1.12.53.14.05.3.11.45.17-.23.84-.51,1.66-.81,2.47-.19-.16-.37-.31-.54-.46-.81-.76-1.66-1.62-2.01-2.72-.64-2.03,2.04-2.11,4.05-2.35-.13.76-.3,1.51-.48,2.25Zm-9.53,15.71c-.08.07-.15.13-.23.19-1.2-3.25-3.95-8.29-1.16-9.21,2.05-.67,5.24.76,7.17,2.19-.63,1.02-1.33,2.01-2.08,2.95-.99-1.21-2.34-2.36-3.7-2.67-.06-.01-.1.06-.06.1.59.69,1.31,1.29,1.93,1.95.42.45.81.91,1.19,1.38-.94,1.1-1.96,2.14-3.06,3.11Z"/>
      <path class="cls-3" d="m60.66,30.74c-7.95,6.46-19.62,6.79-28.07,1.28-.05-.03-.1.04-.06.08,3.59,4.48,9.94,5.29,15.2,4.86,4.5-.37,10.47-1.86,13.08-6.11.06-.1-.07-.18-.15-.12Z"/>
      <path class="cls-3" d="m71.22,35.33c.67.11,1.4-.04,2.05-.37,1.06-.54,2.03-1.79,2.15-2.75.07-.55-.07-1.11-.5-1.61-1.33-1.51-3.99-.36-5.02.95-1.25,1.59-.72,3.46,1.32,3.78Zm-.82-3.07c.69-1.04,2.07-1.59,3.25-1.5,1.08.08,1.25.71,1.04,1.44-.25.89-.92,1.75-1.75,2.15-1.51.73-3.79-.18-2.54-2.08Z"/>
      <path class="cls-3" d="m66.07,36.56c.36,0,.78-.1,1.14-.31.75-.42,1.13-.88,1.28-1.6.07-.34.01-.69-.24-.98-.9-1.03-2.5-.55-3.26.43-.86,1.1-.31,2.42,1.09,2.45Zm-.51-1.84c.39-.59,1.29-.95,1.95-.75.29.09.34.3.29.57-.12.56-.3.85-.98,1.16-.74.34-1.89-.03-1.26-.98Z"/>
      <path class="cls-3" d="m66.88,32.37c.48,0,.98-.13,1.43-.39.73-.41,1.59-1.49,1.62-2.31.02-.41-.11-.83-.43-1.18-1.21-1.33-3.32-.13-4.17,1-1.05,1.39.03,2.85,1.55,2.87Zm-.85-2.41c.51-.8,1.54-1.21,2.43-1.17.97.04.8,1.03.64,1.37-.23.52-.66,1.02-1.18,1.27-1.1.54-2.79-.05-1.89-1.47Z"/>
      <path class="cls-3" d="m19.79,34.96c.65.33,1.37.48,2.05.37,2.04-.32,2.56-2.19,1.32-3.78-1.02-1.31-3.68-2.46-5.02-.95-.43.49-.57,1.06-.5,1.61.12.97,1.09,2.21,2.15,2.75Zm-.38-4.2c1.18-.09,2.56.45,3.25,1.5,1.25,1.9-1.03,2.81-2.54,2.08-.83-.4-1.5-1.25-1.75-2.15-.21-.73-.04-1.36,1.04-1.44Z"/>
      <path class="cls-3" d="m24.8,33.67c-.26.29-.31.64-.24.98.15.72.53,1.17,1.28,1.6.37.21.78.32,1.14.31,1.39-.03,1.94-1.35,1.09-2.45-.76-.98-2.36-1.46-3.26-.43Zm1.43,2.02c-.68-.31-.86-.6-.98-1.16-.06-.26,0-.48.29-.57.66-.2,1.56.15,1.95.75.62.94-.52,1.32-1.26.98Z"/>
      <path class="cls-3" d="m24.74,31.98c.45.25.96.4,1.43.39,1.51-.03,2.59-1.49,1.55-2.87-.85-1.13-2.96-2.33-4.17-1-.32.35-.45.77-.43,1.18.03.82.9,1.89,1.62,2.31Zm-.14-3.2c.89-.04,1.92.38,2.43,1.17.9,1.41-.79,2.01-1.89,1.47-.52-.26-.95-.75-1.18-1.27-.15-.34-.33-1.33.64-1.37Z"/>
    </g>
  </g>
</svg>