<?xml version="1.0" encoding="UTF-8"?>
<svg id="Layer_2" data-name="Layer 2" xmlns="http://www.w3.org/2000/svg" viewBox="0 0 437.87 96.84">
  <defs>
    <style>
      .cls-1 {
        fill: #ea982a;
      }

      .cls-1, .cls-2 {
        stroke-width: 0px;
      }

      .cls-2 {
        fill: #fff;
      }
    </style>
  </defs>
  <g id="Layer_1-2" data-name="Layer 1">
    <g>
      <g>
        <g>
          <path class="cls-1" d="m51.51,12.55c.66.18,1.3.41,1.93.67-.15.17-.29.35-.45.51-1.16,1.11-2.76,1.66-4.3,1.82-2.45.26-4.34-.89-5.9-2.56.78-.27,1.58-.47,2.41-.63,1.35,2.15,4.58,1.92,6.31.2Z"/>
          <path class="cls-1" d="m48.69,16.62c1.84-.08,4.45-1.18,5.88-2.91.23.11.46.22.68.34-1.54,2.2-3.42,3.68-6.44,4.26-3.9.75-6.63-1.16-8.29-4.38.53-.26,1.07-.5,1.62-.71,1.17,2.4,3.94,3.5,6.54,3.39Z"/>
          <path class="cls-1" d="m48.48,19.36c2.18-.21,4.19-1.16,5.89-2.54.52-.42,1.33-1.25,1.95-2.16.32.2.69.44,1.09.71-.13.39-.27.77-.47,1.14-.76,1.36-2.19,2.3-3.46,3.05-1.94,1.14-4.07,1.49-6.27,1.39-2.26-.1-4.55-.95-6.3-2.44-.74-.63-1.27-1.44-1.7-2.31-.21-.43-.3-.87-.38-1.32.36-.22.72-.43,1.08-.63.8,3.75,5.02,5.44,8.58,5.1Z"/>
          <path class="cls-1" d="m50.38,12.28c-.36.26-.75.49-1.21.65-1.26.44-2.32,0-3.29-.7.29-.04.57-.11.86-.13,1.23-.12,2.45-.05,3.64.18Z"/>
          <path class="cls-1" d="m33.48,19.25c1.19-1.23,2.46-2.35,3.81-3.34.48,1.49,1.61,2.97,2.46,3.79,1.99,1.92,4.81,2.7,7.45,2.94,2.93.26,5.7-.67,8.16-2.27,1.18-.77,2.8-2.3,3.51-3.94.74.57,1.49,1.2,2.19,1.85,2.07,1.94,1.81,3.47.13,4.77-8.22,6.35-18.77,6.22-27.32.58-2.1-1.38-2.06-2.64-.39-4.38Z"/>
          <path class="cls-1" d="m69.88,40.92c.04.45.07.9.05,1.39-.03.95-.26,2.11.15,3.01.01.03.06.03.07,0,.49-.98.52-2.27.61-3.35.03-.36.08-.81.09-1.28.73-.17,1.46-.34,2.19-.5-.08.76-.09,1.55-.21,2.15-.38,1.94-.94,3.91-1.91,5.62-1.47,2.58-2.89-1.13-3.44-2.51-.46-1.15-.77-2.63-1.36-3.84.36-.05.71-.1,1.07-.15.86-.13,1.76-.33,2.68-.54Z"/>
          <path class="cls-1" d="m55.38,42.79c-.08,1.09-.28,2.18-.15,3.27,0,.08.1.09.13.02.38-.99.79-2.18.96-3.36,1.06-.09,2.12-.18,3.17-.29-.09.33-.18.66-.28.97-.56,1.72-1.17,3.43-2.04,5.01-.32.58-.86,1.48-1.59,1.53-1.01.07-1.97-1.98-2.35-2.7-.67-1.28-1.11-2.88-1.83-4.2,1.33-.06,2.66-.14,3.99-.24Z"/>
          <path class="cls-1" d="m46.29,43.19c-.13.39-.25.78-.38,1.09-.66,1.57-1.41,3.2-2.46,4.54-2.09,2.68-3.55-2.6-4.51-5.75.91.04,1.81.07,2.72.09,0,.96.1,1.92.5,2.79.02.05.09.03.1-.01.22-.91.24-1.84.29-2.77,1.25.02,2.49.02,3.74,0Z"/>
          <path class="cls-1" d="m26.15,46.98c.02.05.09.06.1,0,.45-1.36.48-2.89.78-4.3.05-.24.11-.47.17-.71,1.28.19,2.56.35,3.85.5-.84,2.71-2,5.53-3.77,7.59-2.07,2.42-3.09-2.06-3.33-3.62-.23-1.47-.09-3.4-.35-5.07.88.16,1.76.31,2.64.45-.07.4-.13.79-.19,1.16-.22,1.28-.39,2.78.09,4.01Z"/>
          <path class="cls-1" d="m16.69,66.13s.06-.06.09-.09c.52-.49,1.06-1.1,1.36-1.76.02-.04,0-.11-.06-.11-.63.07-1.23.46-1.7.87-.04.03-.08.06-.11.1-.31-.72-.59-1.45-.86-2.19,2.34-.58,5.46-1.63,4.7,1.4-.38,1.55-1.4,2.97-2.06,4.47-.49-.87-.94-1.77-1.36-2.69Z"/>
          <path class="cls-1" d="m23.02,75.48c2.16-2.58,5.78-7.41,6.65-5.16.74,1.91.21,4.77.04,6.75-.07.8-.38,1.97-.57,3.1-.95-.56-1.88-1.16-2.78-1.82.05-.4.08-.79.13-1.07.28-1.51,1.07-2.92,1.26-4.43,0-.07-.08-.09-.13-.05-1.01.9-1.49,2.53-1.95,3.8-.12.33-.19.68-.25,1.04-.09-.07-.19-.14-.28-.22-.75-.61-1.46-1.26-2.14-1.94Z"/>
          <path class="cls-1" d="m40.08,81.03c-.55.78-.74,1.85-.84,2.79-.01.09-.03.19-.05.29-1.08-.25-2.14-.53-3.19-.87.05-.12.11-.24.16-.34.77-1.46,1.55-2.88,2.64-4.11,2.93-3.29,4.31,3.09,4.9,6.07-1.2-.12-2.39-.3-3.57-.54.1-1.08.12-2.19.12-3.24,0-.1-.12-.12-.17-.05Z"/>
          <path class="cls-1" d="m58.37,82.71c-.28-.82-.69-1.72-1.35-2.27-.06-.05-.14,0-.12.07.19.92.44,1.82.61,2.75.02.13.05.27.08.41-1.05.3-2.12.55-3.19.74.08-.61.11-1.24.18-1.77.21-1.54.45-3.24,1.19-4.62,1.02-1.88,4.39,2.1,5.92,4.21-1.01.43-2.04.81-3.09,1.13-.07-.24-.16-.47-.23-.67Z"/>
          <path class="cls-1" d="m81.17,59.19c-.66-.13-1.4-.13-1.94-.07-.1.01-.14.14-.05.2.38.26.83.43,1.25.59.16.06.33.12.5.19-.26.94-.57,1.86-.9,2.77-.21-.17-.42-.34-.6-.52-.9-.85-1.86-1.82-2.25-3.05-.72-2.27,2.28-2.36,4.53-2.63-.15.85-.33,1.69-.54,2.52Z"/>
          <path class="cls-1" d="m70.51,76.77c-.08.07-.17.14-.26.21-1.34-3.64-4.43-9.28-1.3-10.3,2.29-.75,5.87.86,8.02,2.45-.71,1.14-1.49,2.25-2.33,3.3-1.1-1.36-2.62-2.64-4.14-2.98-.07-.02-.11.06-.06.11.66.77,1.47,1.44,2.16,2.19.47.5.9,1.02,1.33,1.55-1.05,1.23-2.19,2.4-3.42,3.48Z"/>
        </g>
        <g>
          <path class="cls-2" d="m84.17,16.88c-5.85-8.16-15.12-13.12-24.48-15.51C41.77-3.21,19.27,3.86,8.24,19.7c-11.29,15.16-10.1,40.48-1.75,56.49,8.71,16.68,29.71,22.77,46.78,20.01,9.45-1.52,18.15-5.38,25.45-11.81,9.13-8.03,12.88-19.21,13.94-31.26,1.07-12.25-1.31-26.23-8.5-36.25Zm4.02,45.91c-2.88,12.88-12.59,22.43-24.13,27.32-15.73,6.67-36.45,4.6-49.02-7.6-7.58-8.52-11.33-18.71-11.51-30.94-.18-12.78,2.02-25.76,11.17-35.01C32.57-1.49,66.92-2.03,82.39,19.54c8.44,11.77,8.87,29.55,5.8,43.26Z"/>
          <path class="cls-2" d="m62.91,24.4c1.86-2.13,2.73-3.91.41-7.03-1.29-1.73-3.08-3.31-4.15-4.24-3.18-2.75-7.07-4.15-11.14-4.59-7.61-.82-14.44,3.95-18.62,10.19-1.47,2.18-1.44,4.21.33,6.16,8.38,9.26,25.05,8.82,33.18-.5Zm-12.4-11.86c.66.18,1.3.41,1.93.67-.15.17-.29.35-.45.51-1.16,1.11-2.76,1.66-4.3,1.82-2.45.26-4.34-.89-5.9-2.56.78-.27,1.58-.47,2.41-.63,1.35,2.15,4.58,1.92,6.31.2Zm-2.82,4.08c1.84-.08,4.45-1.18,5.88-2.91.23.11.46.22.68.34-1.54,2.2-3.42,3.68-6.44,4.26-3.9.75-6.63-1.16-8.29-4.38.53-.26,1.07-.5,1.62-.71,1.17,2.4,3.94,3.5,6.54,3.39Zm-.21,2.74c2.18-.21,4.19-1.16,5.89-2.54.52-.42,1.33-1.25,1.95-2.16.32.2.69.44,1.09.71-.13.39-.27.77-.47,1.14-.76,1.36-2.19,2.3-3.46,3.05-1.94,1.14-4.07,1.49-6.27,1.39-2.26-.1-4.55-.95-6.3-2.44-.74-.63-1.27-1.44-1.7-2.31-.21-.43-.3-.87-.38-1.32.36-.22.72-.43,1.08-.63.8,3.75,5.02,5.44,8.58,5.1Zm1.9-7.07c-.36.26-.75.49-1.21.65-1.26.44-2.32,0-3.29-.7.29-.04.57-.11.86-.13,1.23-.12,2.45-.05,3.64.18Zm-16.91,6.97c1.19-1.23,2.46-2.35,3.81-3.34.48,1.49,1.61,2.97,2.46,3.79,1.99,1.92,4.81,2.7,7.45,2.94,2.93.26,5.7-.67,8.16-2.27,1.18-.77,2.8-2.3,3.51-3.94.74.57,1.49,1.2,2.19,1.85,2.07,1.94,1.81,3.47.13,4.77-8.22,6.35-18.77,6.22-27.32.58-2.1-1.38-2.06-2.64-.39-4.38Z"/>
          <path class="cls-2" d="m81.02,37.58c-2.66-2.15-6.24-1.42-9.25-.72-5.86,1.36-11.91,1.88-17.9,2.24-9.98.6-20.04.8-31.64-1.32-7.43-1.36-13.87-1.48-13.95,10.23-.06,9,2.5,18.14,7.51,25.49,10.91,16.02,32.94,18.68,49.15,10.62,8.07-4.01,14.24-11.22,17.3-19.87,2.42-6.83,5.53-21.21-1.23-26.68Zm-12.13,3.34c.04.45.07.9.05,1.39-.03.95-.26,2.11.15,3.01.01.03.06.03.07,0,.49-.98.52-2.27.61-3.35.03-.36.08-.81.09-1.28.73-.17,1.46-.34,2.19-.5-.08.76-.09,1.55-.21,2.15-.38,1.94-.93,3.91-1.91,5.62-1.47,2.58-2.89-1.13-3.44-2.51-.46-1.15-.77-2.63-1.36-3.84.36-.05.71-.1,1.07-.15.86-.13,1.76-.33,2.68-.54Zm-14.5,1.87c-.08,1.09-.28,2.18-.15,3.27,0,.08.1.09.13.02.38-.99.79-2.18.96-3.36,1.06-.09,2.12-.18,3.17-.29-.09.33-.18.66-.28.97-.56,1.72-1.17,3.43-2.04,5.01-.32.58-.86,1.48-1.59,1.53-1.01.07-1.97-1.98-2.35-2.7-.67-1.28-1.11-2.88-1.83-4.2,1.33-.06,2.66-.14,3.99-.24Zm-9.09.4c-.13.39-.25.78-.38,1.09-.66,1.57-1.41,3.2-2.46,4.54-2.09,2.68-3.55-2.6-4.51-5.75.91.04,1.81.07,2.72.09,0,.96.1,1.92.5,2.79.02.05.09.03.1-.01.22-.91.24-1.84.29-2.77,1.25.02,2.49.02,3.74,0Zm-20.14,3.79c.02.05.09.06.1,0,.45-1.36.48-2.89.78-4.3.05-.24.11-.47.17-.71,1.28.19,2.56.35,3.85.5-.84,2.71-2,5.53-3.77,7.59-2.07,2.42-3.09-2.06-3.33-3.62-.23-1.47-.09-3.4-.35-5.07.88.16,1.76.31,2.64.45-.07.4-.13.79-.19,1.16-.22,1.28-.39,2.78.09,4.01Zm-9.46,19.15s.06-.06.09-.09c.52-.49,1.06-1.1,1.36-1.76.02-.04,0-.11-.06-.11-.63.07-1.23.46-1.7.87-.04.03-.08.06-.11.1-.31-.72-.59-1.45-.86-2.19,2.34-.58,5.46-1.63,4.7,1.4-.38,1.55-1.4,2.97-2.06,4.47-.49-.87-.94-1.77-1.36-2.69Zm6.34,9.35c2.16-2.58,5.78-7.41,6.65-5.16.74,1.91.21,4.77.04,6.75-.07.8-.38,1.97-.57,3.1-.95-.56-1.88-1.16-2.78-1.82.05-.4.08-.79.13-1.07.28-1.51,1.07-2.92,1.26-4.43,0-.07-.08-.09-.13-.05-1.01.9-1.49,2.53-1.95,3.8-.12.33-.19.68-.25,1.04-.09-.07-.19-.14-.28-.22-.75-.61-1.46-1.26-2.14-1.94Zm17.06,5.55c-.55.78-.74,1.85-.84,2.79-.01.09-.03.19-.05.29-1.08-.25-2.14-.53-3.19-.87.05-.12.11-.24.16-.34.77-1.46,1.55-2.88,2.64-4.11,2.93-3.29,4.31,3.09,4.9,6.07-1.2-.12-2.39-.3-3.57-.54.1-1.08.12-2.19.12-3.24,0-.1-.12-.12-.17-.05Zm18.29,1.69c-.28-.82-.69-1.72-1.35-2.27-.06-.05-.14,0-.12.07.19.92.44,1.82.61,2.75.02.13.05.27.08.41-1.05.3-2.12.55-3.19.74.08-.61.11-1.24.18-1.77.21-1.54.45-3.24,1.19-4.62,1.02-1.88,4.39,2.1,5.92,4.21-1.01.43-2.04.81-3.09,1.13-.07-.24-.16-.47-.23-.67Zm4.97-1.22c-1.65-2.62-4.81-6.52-7.76-5.55-1.51.5-1.9,2.68-2.1,4.05-.19,1.32-.48,3.12-.36,4.63-2.63.39-5.3.51-7.96.34-.55-3.21-1.39-9.31-5.59-8.44-1.58.33-2.68,2.33-3.38,3.64-.36.68-.93,1.68-1.31,2.68-1.34-.48-2.65-1.05-3.92-1.7.04-.39.07-.78.11-1.1.22-1.58.38-3.17.5-4.76.16-2.19.59-5.37-1.24-6.98-2.65-2.33-6.5,2.71-8.26,6.13-1.11-1.23-2.1-2.54-3-3.93.76-2.64,3.3-5.2,2.43-8.01-.87-2.82-4.16-1.61-6.44-.47-.37-1.11-.72-2.23-1-3.37-.88-3.47-1.2-7.07-1.29-10.64-.14-6.29,3.38-8.15,9.05-6.99.14.03.29.05.44.08-.3,4.08.25,12.24,4.49,11.13,1.81-.47,3.08-2.95,3.91-4.47.87-1.59,1.63-3.34,2.2-5.11,1.65.16,3.3.28,4.96.36.36,3.31,2.17,8.62,5.1,7.83,1.78-.48,2.84-2.7,3.6-4.24.38-.77,1.19-2.19,1.57-3.45.8-.02,1.59-.04,2.39-.08.47,3.39,2.94,10.08,6.4,7.93,1.52-.94,2.3-3.15,2.92-4.75.38-.97,1.2-2.62,1.46-4.02,1.2-.14,2.39-.28,3.57-.44.37,3.54,2.79,10.56,6,8.65,1.89-1.13,2.62-3.84,3.18-5.85.28-.99.99-3.12.99-4.73,1.28-.17,2.52-.23,3.69-.04,4.29.73,3.65,8.48,3.56,11.61-.04,1.35-.16,2.68-.34,3.99-1.11-.12-2.31-.04-3.19.13-1.49.3-2.77,1.19-3.13,2.78-.3,1.36.56,2.67,1.32,3.67.6.79,1.49,1.83,2.41,2.61-.44,1.02-.93,2.01-1.46,2.98-2.72-1.98-7.06-3.8-9.91-2.47-4.12,1.92-1.27,9.12,1.11,12.81-1.78,1.38-3.7,2.56-5.72,3.54Zm17.83-22.31c-.66-.13-1.4-.13-1.94-.07-.1.01-.14.14-.05.2.38.26.83.43,1.25.59.16.06.33.12.5.19-.26.94-.57,1.86-.9,2.77-.21-.17-.42-.34-.6-.52-.91-.85-1.86-1.82-2.25-3.05-.72-2.27,2.28-2.36,4.53-2.63-.15.85-.33,1.69-.54,2.52Zm-10.67,17.58c-.08.07-.17.14-.26.21-1.34-3.64-4.43-9.28-1.3-10.3,2.29-.75,5.87.86,8.02,2.45-.71,1.14-1.49,2.25-2.33,3.3-1.1-1.36-2.62-2.64-4.14-2.98-.07-.02-.11.06-.06.11.66.77,1.47,1.44,2.16,2.19.47.5.9,1.02,1.33,1.55-1.05,1.23-2.19,2.4-3.42,3.48Z"/>
          <path class="cls-2" d="m62.35,27.74c-8.9,7.23-21.96,7.6-31.4,1.44-.06-.04-.11.04-.07.09,4.01,5.01,11.12,5.92,17,5.44,5.04-.41,11.72-2.08,14.63-6.84.07-.11-.08-.2-.16-.13Z"/>
          <path class="cls-2" d="m74.16,32.88c.75.12,1.56-.04,2.29-.41,1.19-.61,2.27-2,2.41-3.08.08-.61-.08-1.25-.56-1.8-1.49-1.69-4.47-.41-5.61,1.06-1.39,1.78-.81,3.87,1.47,4.23Zm-.92-3.43c.77-1.17,2.32-1.77,3.63-1.68,1.21.09,1.4.79,1.17,1.61-.28,1-1.03,1.95-1.96,2.4-1.69.81-4.24-.2-2.84-2.33Z"/>
          <path class="cls-2" d="m68.41,34.25c.41.01.87-.12,1.28-.35.84-.47,1.26-.98,1.43-1.79.08-.38.01-.77-.27-1.09-1.01-1.15-2.8-.61-3.65.48-.96,1.23-.34,2.71,1.22,2.75Zm-.57-2.06c.44-.66,1.44-1.06,2.18-.84.32.1.38.34.32.63-.13.63-.33.95-1.09,1.3-.82.38-2.11-.04-1.41-1.09Z"/>
          <path class="cls-2" d="m69.31,29.57c.53,0,1.1-.15,1.6-.44.81-.46,1.78-1.66,1.82-2.58.02-.46-.12-.92-.48-1.32-1.35-1.49-3.72-.14-4.67,1.12-1.17,1.55.04,3.18,1.73,3.21Zm-.95-2.7c.57-.89,1.73-1.36,2.72-1.31,1.08.05.89,1.15.72,1.53-.26.59-.74,1.14-1.32,1.42-1.23.6-3.12-.06-2.11-1.64Z"/>
          <path class="cls-2" d="m16.62,32.47c.72.37,1.54.53,2.29.41,2.28-.36,2.87-2.45,1.47-4.23-1.15-1.46-4.12-2.75-5.61-1.06-.48.55-.64,1.18-.56,1.8.14,1.08,1.22,2.47,2.41,3.08Zm-.42-4.7c1.32-.1,2.86.51,3.63,1.68,1.4,2.13-1.15,3.15-2.84,2.33-.93-.45-1.68-1.4-1.96-2.4-.23-.81-.05-1.52,1.17-1.61Z"/>
          <path class="cls-2" d="m22.23,31.02c-.29.33-.35.72-.27,1.09.17.81.59,1.31,1.43,1.79.41.23.87.36,1.28.35,1.56-.04,2.17-1.51,1.22-2.75-.85-1.09-2.64-1.64-3.65-.48Zm1.6,2.26c-.76-.35-.96-.67-1.09-1.3-.06-.29,0-.54.32-.63.74-.22,1.74.17,2.18.84.7,1.06-.59,1.47-1.41,1.09Z"/>
          <path class="cls-2" d="m22.16,29.13c.5.29,1.07.44,1.6.44,1.69-.03,2.9-1.66,1.73-3.21-.95-1.26-3.32-2.61-4.67-1.12-.36.39-.5.86-.48,1.32.04.92,1,2.12,1.82,2.58Zm-.16-3.58c.99-.04,2.15.42,2.72,1.31,1.01,1.58-.89,2.25-2.11,1.64-.58-.29-1.06-.84-1.32-1.42-.17-.39-.36-1.49.72-1.53Z"/>
        </g>
      </g>
      <g>
        <path class="cls-2" d="m135.21,69.09c-3.74,0-9.13-14.52-10.61-17.38-2.25-4.18-4.23-8.25-7.15-11.71,0,4.12-.28,8.52-1.59,13.36-1.21,4.51-3.08,9.02-3.08,13.69,0,1.1.38,2.25.38,3.41s-1.59,2.25-2.75,2.25c-.5,0-.94-.22-1.1-.71-.49-1.48-.77-3.02-.77-4.67,0-8.85,6.21-19.63,6.21-28.54,0-1.38-.17-2.8-.49-4.07,0-1.1,1.26-1.76,2.31-1.76.77,0,1.43.38,1.43,1.43l-.11.66c4.51,3.85,7.31,9.07,10.45,15.07,1.92,4.23,4.18,9.07,6.82,13.31,1.04-9.07.71-18.31,5.99-26.56.88-.5,1.65-.71,2.31-.71,6.87,0,4.18,25.13,9.68,33.6,0,.99-.99,1.54-2.03,1.54-.93,0-1.87-.44-2.14-1.38-2.7-9.29-4.4-18.97-6.21-29.64-1.81,3.02-2.36,6.82-2.86,10.61-.66,5.39-1.21,10.78-2.03,16.17-.33,1.21-1.21,2.04-2.64,2.04Z"/>
        <path class="cls-2" d="m171.01,32.63c.66,0,1.48.55,1.92,1.15h.38c8.19.33,10.23,14.96,10.23,21.78,0,7.2-1.65,15.29-10.67,15.29-7.75,0-12.04-9.73-12.04-19.47,0-6.71,3.19-18.75,10.17-18.75Zm.88,4.12c-.44,0-.88-.22-1.26-.55-5,2.69-6.27,9.29-6.27,14.79,0,4.73,1.59,16.33,7.7,17.43,6.38-.99,7.97-6.87,7.97-13.14,0-7.15-.44-15.51-6.93-18.75-.33,0-.71.22-1.21.22Z"/>
        <path class="cls-2" d="m210.83,33.56c.99,0,2.09.6,2.09,1.59,0,11.77,1.1,23.54,1.1,35.31,0,.88-.71,1.21-1.59,1.21-.99,0-2.09-.6-2.09-1.54,0-1.21,0-2.47-.05-3.74-4.67-7.48-7.2-16.5-12.37-23.81,0,8.47-.39,16.99-.39,26.01,0,1.15-1.1,2.03-1.98,2.03-.55,0-.99-.38-.99-1.32,0-7.37.39-14.68.39-22.22,0-3.79-.11-7.64-.39-11.49,0-1.1.77-1.98,1.54-1.98.71,0,1.43.71,1.59,2.53,5.77,6.49,8.58,14.68,12.32,22.33-.27-7.86-.77-15.78-.77-23.7,0-.83.71-1.21,1.59-1.21Z"/>
        <path class="cls-2" d="m245.59,36.64c0,.88-1.04,1.65-2.09,1.65-.5,0-.99-.11-1.32-.55-1.21-1.59-2.92-2.37-4.62-2.37-3.02,0-5.99,2.25-5.99,5.44,0,10.56,20.95,9.13,20.95,19.91,0,6.65-5.61,10.17-13.2,10.17-6.49,0-13.31-2.97-18.26-6.82-.33-.33-.44-.66-.44-.99,0-.94,1.21-1.92,2.31-1.92.38,0,.66.11.99.27,4.29,3.79,10.39,6.6,16.44,6.6,3.3,0,8.58-1.59,8.58-5.99,0-10.45-20.68-8.69-20.68-20.68,0-5,4.95-8.85,9.95-8.85,3.08,0,7.37,1.87,7.37,4.12Z"/>
        <path class="cls-2" d="m270.29,31.47c0-.99,1.16-1.59,2.14-1.59.66,0,1.21.33,1.21.99-.05,1.1-.05,2.14-.05,3.19,1.48.05,3.08.11,4.56.11,2.86,0,5.61-.71,8.41-.71.71,0,1.1.55,1.1,1.21,0,.77-.5,1.71-1.43,1.87-3.08.6-6.27.83-9.46.83-1.04,0-2.14-.11-3.13-.11.33,7.7,1.87,15.29,1.87,22.93,0,3.08-.28,6.27-.94,9.35-.16.83-.99,1.38-1.81,1.38-.6,0-1.15-.38-1.15-1.1.6-3.25.88-6.27.88-9.24,0-7.75-1.59-15.56-2.09-23.37-2.31-.06-4.56-.17-6.93-.17-1.59,0-3.24.05-5.11.17-.66,0-.88-.44-.88-1.04,0-.99.77-2.31,1.71-2.31h4.29c2.15,0,4.4,0,6.82.11v-2.47Z"/>
        <path class="cls-2" d="m294.93,70.35c0-.55.77-1.04,1.32-1.04.27,0,.55,0,.88.05-.38-1.04-.49-2.14-.49-3.24,0-3.46.44-8.63.44-12.43,0-6.71-.99-11.44-1.15-19.69l-1.76.16c-.61,0-.99-.6-.99-1.32,0-.77.44-1.65,1.21-1.81,1.48-.17,3.02-.44,4.56-.44,1.1,0,2.25.22,3.35.44.66.11.99.77.99,1.48,0,.83-.44,1.65-1.27,1.65-1.1-.22-2.2-.33-3.3-.33,0,7.37,1.26,12.43,1.26,19.91,0,3.13-.33,8.03-.33,11.38,0,1.26.17,2.42.83,4.12.71,0,2.09.44,2.09,1.37,0,.44-.44.94-.93.94-1.59.33-3.13.33-5,.33-.88,0-1.71-.5-1.71-1.54Z"/>
        <path class="cls-2" d="m317.64,30.48c.66,0,1.21.33,1.26.88,5.88.27,11.55,3.02,17.54,3.41.71,0,.99.44.99.93,0,.88-.93,2.25-2.04,2.25-5.66-.33-11.05-2.86-16.72-3.41-.28,7.04-.22,14.08-.44,21.23,4.89-.71,9.73-1.65,14.68-1.65,1.49,0,2.2.88,2.2,1.65,0,.61-.44,1.16-1.16,1.16-5.17,0-10.39.71-15.95,1.76-.17,3.08-.38,6.1-.83,9.13l10.34.99c5.61,0,7.86-.99,8.03-.99,1.43,0,2.2,1.21,2.2,2.2,0,.6-.38,1.1-1.04,1.1-3.63,0-8.96.55-13.53.55-5.17,0-9.46-.66-9.46-3.41,0-.28,0-.5.06-.77,1.81-12.32.82-23.21,1.59-35.47.11-.99,1.26-1.54,2.25-1.54Z"/>
        <path class="cls-2" d="m348.06,33.29c.22,0,.38,0,.66.06.83-.33,1.76-.44,2.64-.44,5.17,0,11.05,4.29,12.43,8.96.28.99.44,1.82.44,2.58,0,5.06-5.11,7.31-10.67,8.25,5.55.66,14.68,6.6,17.1,13.97.28.71.38,1.38.38,1.98,0,1.43-.71,2.31-2.64,2.42-.93-1.04-1.32-2.09-1.54-3.13-1.1-4.4-8.19-11.99-14.9-12.43.5,3.19.83,6.32.83,9.46,0,2.2-.17,4.34-.55,6.54-.11.72-.93,1.1-1.65,1.1-.83,0-1.65-.44-1.65-1.21.44-2.37.55-4.56.55-6.71,0-9.13-2.92-18.59-2.92-27.72,0-1.15,0-3.68,1.49-3.68Zm3.08,16.55c.83.11,1.71.17,2.42.17,5.11,0,7.31-2.58,7.31-5.5,0-3.79-3.74-8.25-9.24-8.25-.55,0-1.16,0-1.76.11,0,4.95.6,9.18,1.26,13.47Z"/>
        <path class="cls-2" d="m381.33,33.29c.22,0,.38,0,.66.06.83-.33,1.76-.44,2.64-.44,5.17,0,11.05,4.29,12.43,8.96.28.99.44,1.82.44,2.58,0,5.06-5.12,7.31-10.67,8.25,5.55.66,14.68,6.6,17.1,13.97.28.71.38,1.38.38,1.98,0,1.43-.71,2.31-2.64,2.42-.93-1.04-1.32-2.09-1.54-3.13-1.1-4.4-8.19-11.99-14.9-12.43.5,3.19.83,6.32.83,9.46,0,2.2-.17,4.34-.55,6.54-.11.72-.93,1.1-1.65,1.1-.83,0-1.65-.44-1.65-1.21.44-2.37.55-4.56.55-6.71,0-9.13-2.92-18.59-2.92-27.72,0-1.15,0-3.68,1.49-3.68Zm3.08,16.55c.83.11,1.71.17,2.42.17,5.11,0,7.31-2.58,7.31-5.5,0-3.79-3.74-8.25-9.24-8.25-.55,0-1.16,0-1.76.11,0,4.95.6,9.18,1.26,13.47Z"/>
        <path class="cls-2" d="m414,56.27c-.66-.11-.88-.66-.88-1.26,0-1.04.71-2.37,1.98-2.37l2.14.5.11-.83c.88-6.65,1.54-11.88,3.3-16.55l-.55-1.16c0-1.21,1.1-2.09,2.14-2.09.61,0,1.1.17,1.49.66,3.02,7.2,6.38,14.3,9.18,21.56.22.05.44.05.6.05.77.22,1.04.94,1.04,1.65,0,.55-.11,1.15-.44,1.54,1.48,3.74,2.75,7.53,3.74,11.6,0,1.1-1.21,1.98-2.2,1.98-.55,0-.99-.22-1.15-.83-1.16-4.29-2.58-8.47-4.18-12.65-3.57-.44-7.15-.66-10.67-1.04-.38,2.97-2.14,7.64-2.14,10.23,0,.5.22.88.22,1.43,0,1.1-1.1,2.09-1.98,2.09-1.1,0-1.26-1.43-1.26-2.42,0-3.58,1.54-7.81,2.31-11.6l-2.8-.5Zm6.1-2.75c2.91.44,5.88.61,8.8.88-2.04-5-4.18-9.84-6.38-14.57-1.21,4.51-1.65,9.24-2.42,13.69Z"/>
      </g>
    </g>
  </g>
</svg>